<mxfile host="65bd71144e">
    <diagram id="Rq73BQX9tuX56O0J3fOM" name="Page-1">
        <mxGraphModel dx="2416" dy="1705" grid="1" gridSize="10" guides="1" tooltips="1" connect="1" arrows="1" fold="1" page="1" pageScale="1" pageWidth="827" pageHeight="1169" math="0" shadow="0">
            <root>
                <mxCell id="0"/>
                <mxCell id="1" parent="0"/>
                <mxCell id="2" value="&lt;b&gt;Oeuvre&lt;/b&gt;" style="swimlane;fontStyle=0;childLayout=stackLayout;horizontal=1;startSize=30;horizontalStack=0;resizeParent=1;resizeParentMax=0;resizeLast=0;collapsible=1;marginBottom=0;whiteSpace=wrap;html=1;fillColor=#66B2FF;strokeColor=none;" parent="1" vertex="1">
                    <mxGeometry x="-250" y="-60" width="140" height="240" as="geometry"/>
                </mxCell>
                <mxCell id="3" value="&lt;u&gt;code oeuvre&lt;/u&gt;" style="text;strokeColor=none;fillColor=#CCE5FF;align=left;verticalAlign=middle;spacingLeft=4;spacingRight=4;overflow=hidden;points=[[0,0.5],[1,0.5]];portConstraint=eastwest;rotatable=0;whiteSpace=wrap;html=1;" parent="2" vertex="1">
                    <mxGeometry y="30" width="140" height="30" as="geometry"/>
                </mxCell>
                <mxCell id="4" value="Titre" style="text;strokeColor=none;fillColor=#CCE5FF;align=left;verticalAlign=middle;spacingLeft=4;spacingRight=4;overflow=hidden;points=[[0,0.5],[1,0.5]];portConstraint=eastwest;rotatable=0;whiteSpace=wrap;html=1;" parent="2" vertex="1">
                    <mxGeometry y="60" width="140" height="30" as="geometry"/>
                </mxCell>
                <mxCell id="27" value="Image" style="text;strokeColor=none;fillColor=#CCE5FF;align=left;verticalAlign=middle;spacingLeft=4;spacingRight=4;overflow=hidden;points=[[0,0.5],[1,0.5]];portConstraint=eastwest;rotatable=0;whiteSpace=wrap;html=1;" parent="2" vertex="1">
                    <mxGeometry y="90" width="140" height="30" as="geometry"/>
                </mxCell>
                <mxCell id="144" value="année de sortie" style="text;strokeColor=none;fillColor=#CCE5FF;align=left;verticalAlign=middle;spacingLeft=4;spacingRight=4;overflow=hidden;points=[[0,0.5],[1,0.5]];portConstraint=eastwest;rotatable=0;whiteSpace=wrap;html=1;" vertex="1" parent="2">
                    <mxGeometry y="120" width="140" height="30" as="geometry"/>
                </mxCell>
                <mxCell id="145" value="réalisateur" style="text;strokeColor=none;fillColor=#CCE5FF;align=left;verticalAlign=middle;spacingLeft=4;spacingRight=4;overflow=hidden;points=[[0,0.5],[1,0.5]];portConstraint=eastwest;rotatable=0;whiteSpace=wrap;html=1;" vertex="1" parent="2">
                    <mxGeometry y="150" width="140" height="30" as="geometry"/>
                </mxCell>
                <mxCell id="146" value="phrase d&#39;accroche" style="text;strokeColor=none;fillColor=#CCE5FF;align=left;verticalAlign=middle;spacingLeft=4;spacingRight=4;overflow=hidden;points=[[0,0.5],[1,0.5]];portConstraint=eastwest;rotatable=0;whiteSpace=wrap;html=1;" vertex="1" parent="2">
                    <mxGeometry y="180" width="140" height="30" as="geometry"/>
                </mxCell>
                <mxCell id="147" value="description" style="text;strokeColor=none;fillColor=#CCE5FF;align=left;verticalAlign=middle;spacingLeft=4;spacingRight=4;overflow=hidden;points=[[0,0.5],[1,0.5]];portConstraint=eastwest;rotatable=0;whiteSpace=wrap;html=1;" vertex="1" parent="2">
                    <mxGeometry y="210" width="140" height="30" as="geometry"/>
                </mxCell>
                <mxCell id="6" value="&lt;b&gt;Recette&lt;/b&gt;" style="swimlane;fontStyle=0;childLayout=stackLayout;horizontal=1;startSize=30;horizontalStack=0;resizeParent=1;resizeParentMax=0;resizeLast=0;collapsible=1;marginBottom=0;whiteSpace=wrap;html=1;fillColor=#66B2FF;strokeColor=none;" parent="1" vertex="1">
                    <mxGeometry x="130" width="140" height="240" as="geometry"/>
                </mxCell>
                <mxCell id="7" value="&lt;u&gt;code Recette&lt;/u&gt;" style="text;strokeColor=none;fillColor=#CCE5FF;align=left;verticalAlign=middle;spacingLeft=4;spacingRight=4;overflow=hidden;points=[[0,0.5],[1,0.5]];portConstraint=eastwest;rotatable=0;whiteSpace=wrap;html=1;" parent="6" vertex="1">
                    <mxGeometry y="30" width="140" height="30" as="geometry"/>
                </mxCell>
                <mxCell id="8" value="Titre" style="text;strokeColor=none;fillColor=#CCE5FF;align=left;verticalAlign=middle;spacingLeft=4;spacingRight=4;overflow=hidden;points=[[0,0.5],[1,0.5]];portConstraint=eastwest;rotatable=0;whiteSpace=wrap;html=1;" parent="6" vertex="1">
                    <mxGeometry y="60" width="140" height="30" as="geometry"/>
                </mxCell>
                <mxCell id="28" value="Image" style="text;strokeColor=none;fillColor=#CCE5FF;align=left;verticalAlign=middle;spacingLeft=4;spacingRight=4;overflow=hidden;points=[[0,0.5],[1,0.5]];portConstraint=eastwest;rotatable=0;whiteSpace=wrap;html=1;" parent="6" vertex="1">
                    <mxGeometry y="90" width="140" height="30" as="geometry"/>
                </mxCell>
                <mxCell id="25" value="Description" style="text;strokeColor=none;fillColor=#CCE5FF;align=left;verticalAlign=middle;spacingLeft=4;spacingRight=4;overflow=hidden;points=[[0,0.5],[1,0.5]];portConstraint=eastwest;rotatable=0;whiteSpace=wrap;html=1;" parent="6" vertex="1">
                    <mxGeometry y="120" width="140" height="30" as="geometry"/>
                </mxCell>
                <mxCell id="41" value="Anecdote" style="text;strokeColor=none;fillColor=#CCE5FF;align=left;verticalAlign=middle;spacingLeft=4;spacingRight=4;overflow=hidden;points=[[0,0.5],[1,0.5]];portConstraint=eastwest;rotatable=0;whiteSpace=wrap;html=1;" parent="6" vertex="1">
                    <mxGeometry y="150" width="140" height="30" as="geometry"/>
                </mxCell>
                <mxCell id="97" value="Instruction(s)" style="text;strokeColor=none;fillColor=#CCE5FF;align=left;verticalAlign=middle;spacingLeft=4;spacingRight=4;overflow=hidden;points=[[0,0.5],[1,0.5]];portConstraint=eastwest;rotatable=0;whiteSpace=wrap;html=1;" parent="6" vertex="1">
                    <mxGeometry y="180" width="140" height="30" as="geometry"/>
                </mxCell>
                <mxCell id="96" value="temps de réalisation" style="text;strokeColor=none;fillColor=#CCE5FF;align=left;verticalAlign=middle;spacingLeft=4;spacingRight=4;overflow=hidden;points=[[0,0.5],[1,0.5]];portConstraint=eastwest;rotatable=0;whiteSpace=wrap;html=1;" parent="6" vertex="1">
                    <mxGeometry y="210" width="140" height="30" as="geometry"/>
                </mxCell>
                <mxCell id="10" value="&lt;b&gt;Genre d&#39;oeuvre&lt;/b&gt;" style="swimlane;fontStyle=0;childLayout=stackLayout;horizontal=1;startSize=30;horizontalStack=0;resizeParent=1;resizeParentMax=0;resizeLast=0;collapsible=1;marginBottom=0;whiteSpace=wrap;html=1;fillColor=#66B2FF;strokeColor=none;" parent="1" vertex="1">
                    <mxGeometry x="-250" y="370" width="140" height="90" as="geometry"/>
                </mxCell>
                <mxCell id="143" value="&lt;u&gt;code genre oeuvre&lt;/u&gt;" style="text;strokeColor=none;fillColor=#CCE5FF;align=left;verticalAlign=middle;spacingLeft=4;spacingRight=4;overflow=hidden;points=[[0,0.5],[1,0.5]];portConstraint=eastwest;rotatable=0;whiteSpace=wrap;html=1;" vertex="1" parent="10">
                    <mxGeometry y="30" width="140" height="30" as="geometry"/>
                </mxCell>
                <mxCell id="13" value="nom" style="text;strokeColor=none;fillColor=#CCE5FF;align=left;verticalAlign=middle;spacingLeft=4;spacingRight=4;overflow=hidden;points=[[0,0.5],[1,0.5]];portConstraint=eastwest;rotatable=0;whiteSpace=wrap;html=1;" parent="10" vertex="1">
                    <mxGeometry y="60" width="140" height="30" as="geometry"/>
                </mxCell>
                <mxCell id="14" value="&lt;b&gt;Catégorie de plat&lt;/b&gt;" style="swimlane;fontStyle=0;childLayout=stackLayout;horizontal=1;startSize=30;horizontalStack=0;resizeParent=1;resizeParentMax=0;resizeLast=0;collapsible=1;marginBottom=0;whiteSpace=wrap;html=1;fillColor=#66B2FF;strokeColor=none;" parent="1" vertex="1">
                    <mxGeometry x="510" y="70" width="140" height="90" as="geometry"/>
                </mxCell>
                <mxCell id="16" value="&lt;u&gt;code catégorie de plat&lt;/u&gt;" style="text;strokeColor=none;fillColor=#CCE5FF;align=left;verticalAlign=middle;spacingLeft=4;spacingRight=4;overflow=hidden;points=[[0,0.5],[1,0.5]];portConstraint=eastwest;rotatable=0;whiteSpace=wrap;html=1;" parent="14" vertex="1">
                    <mxGeometry y="30" width="140" height="30" as="geometry"/>
                </mxCell>
                <mxCell id="139" value="nom" style="text;strokeColor=none;fillColor=#CCE5FF;align=left;verticalAlign=middle;spacingLeft=4;spacingRight=4;overflow=hidden;points=[[0,0.5],[1,0.5]];portConstraint=eastwest;rotatable=0;whiteSpace=wrap;html=1;" vertex="1" parent="14">
                    <mxGeometry y="60" width="140" height="30" as="geometry"/>
                </mxCell>
                <mxCell id="32" value="&lt;b&gt;Ingrédient&lt;/b&gt;" style="swimlane;fontStyle=0;childLayout=stackLayout;horizontal=1;startSize=30;horizontalStack=0;resizeParent=1;resizeParentMax=0;resizeLast=0;collapsible=1;marginBottom=0;whiteSpace=wrap;html=1;fillColor=#66B2FF;strokeColor=none;" parent="1" vertex="1">
                    <mxGeometry x="130" y="440" width="140" height="90" as="geometry"/>
                </mxCell>
                <mxCell id="36" value="&lt;u&gt;code ingrédient&lt;/u&gt;" style="text;strokeColor=none;fillColor=#CCE5FF;align=left;verticalAlign=middle;spacingLeft=4;spacingRight=4;overflow=hidden;points=[[0,0.5],[1,0.5]];portConstraint=eastwest;rotatable=0;whiteSpace=wrap;html=1;" parent="32" vertex="1">
                    <mxGeometry y="30" width="140" height="30" as="geometry"/>
                </mxCell>
                <mxCell id="141" value="nom" style="text;strokeColor=none;fillColor=#CCE5FF;align=left;verticalAlign=middle;spacingLeft=4;spacingRight=4;overflow=hidden;points=[[0,0.5],[1,0.5]];portConstraint=eastwest;rotatable=0;whiteSpace=wrap;html=1;" vertex="1" parent="32">
                    <mxGeometry y="60" width="140" height="30" as="geometry"/>
                </mxCell>
                <mxCell id="37" value="&lt;b&gt;Utilisateur&lt;/b&gt;" style="swimlane;fontStyle=0;childLayout=stackLayout;horizontal=1;startSize=30;horizontalStack=0;resizeParent=1;resizeParentMax=0;resizeLast=0;collapsible=1;marginBottom=0;whiteSpace=wrap;html=1;fillColor=#66B2FF;strokeColor=none;" parent="1" vertex="1">
                    <mxGeometry x="340" y="-190" width="140" height="180" as="geometry"/>
                </mxCell>
                <mxCell id="43" value="&lt;u&gt;code utilisateur&lt;/u&gt;" style="text;strokeColor=none;fillColor=#CCE5FF;align=left;verticalAlign=middle;spacingLeft=4;spacingRight=4;overflow=hidden;points=[[0,0.5],[1,0.5]];portConstraint=eastwest;rotatable=0;whiteSpace=wrap;html=1;" parent="37" vertex="1">
                    <mxGeometry y="30" width="140" height="30" as="geometry"/>
                </mxCell>
                <mxCell id="138" value="Email" style="text;strokeColor=none;fillColor=#CCE5FF;align=left;verticalAlign=middle;spacingLeft=4;spacingRight=4;overflow=hidden;points=[[0,0.5],[1,0.5]];portConstraint=eastwest;rotatable=0;whiteSpace=wrap;html=1;" vertex="1" parent="37">
                    <mxGeometry y="60" width="140" height="30" as="geometry"/>
                </mxCell>
                <mxCell id="40" value="Pseudonyme" style="text;strokeColor=none;fillColor=#CCE5FF;align=left;verticalAlign=middle;spacingLeft=4;spacingRight=4;overflow=hidden;points=[[0,0.5],[1,0.5]];portConstraint=eastwest;rotatable=0;whiteSpace=wrap;html=1;" parent="37" vertex="1">
                    <mxGeometry y="90" width="140" height="30" as="geometry"/>
                </mxCell>
                <mxCell id="44" value="Mot de passe" style="text;strokeColor=none;fillColor=#CCE5FF;align=left;verticalAlign=middle;spacingLeft=4;spacingRight=4;overflow=hidden;points=[[0,0.5],[1,0.5]];portConstraint=eastwest;rotatable=0;whiteSpace=wrap;html=1;" parent="37" vertex="1">
                    <mxGeometry y="120" width="140" height="30" as="geometry"/>
                </mxCell>
                <mxCell id="45" value="Rôle" style="text;strokeColor=none;fillColor=#CCE5FF;align=left;verticalAlign=middle;spacingLeft=4;spacingRight=4;overflow=hidden;points=[[0,0.5],[1,0.5]];portConstraint=eastwest;rotatable=0;whiteSpace=wrap;html=1;" parent="37" vertex="1">
                    <mxGeometry y="150" width="140" height="30" as="geometry"/>
                </mxCell>
                <mxCell id="42" value="&lt;b&gt;POUR TOUTE LES ENTITES &lt;br&gt;création à&amp;nbsp;&lt;br&gt;mise à jour à&amp;nbsp;&lt;/b&gt;" style="rounded=1;whiteSpace=wrap;html=1;" parent="1" vertex="1">
                    <mxGeometry x="420" y="310" width="230" height="120" as="geometry"/>
                </mxCell>
                <mxCell id="50" value="&lt;b&gt;INSPIRE&lt;/b&gt;" style="ellipse;whiteSpace=wrap;html=1;fillColor=#FFCC99;strokeColor=none;" parent="1" vertex="1">
                    <mxGeometry x="-40" y="70" width="100" height="70" as="geometry"/>
                </mxCell>
                <mxCell id="51" value="" style="endArrow=none;html=1;entryX=0;entryY=0.5;entryDx=0;entryDy=0;exitX=1;exitY=0.5;exitDx=0;exitDy=0;" parent="1" source="50" edge="1">
                    <mxGeometry width="50" height="50" relative="1" as="geometry">
                        <mxPoint x="70" y="105" as="sourcePoint"/>
                        <mxPoint x="130" y="105" as="targetPoint"/>
                    </mxGeometry>
                </mxCell>
                <mxCell id="53" value="" style="endArrow=none;html=1;" parent="1" edge="1">
                    <mxGeometry width="50" height="50" relative="1" as="geometry">
                        <mxPoint x="-110" y="104.5" as="sourcePoint"/>
                        <mxPoint x="-40" y="104.5" as="targetPoint"/>
                    </mxGeometry>
                </mxCell>
                <mxCell id="55" value="0, N" style="text;html=1;align=center;verticalAlign=middle;resizable=0;points=[];autosize=1;strokeColor=none;fillColor=none;" parent="1" vertex="1">
                    <mxGeometry x="-115" y="78" width="50" height="30" as="geometry"/>
                </mxCell>
                <mxCell id="56" value="1, 1" style="text;html=1;align=center;verticalAlign=middle;resizable=0;points=[];autosize=1;strokeColor=none;fillColor=none;" parent="1" vertex="1">
                    <mxGeometry x="85" y="78" width="40" height="30" as="geometry"/>
                </mxCell>
                <mxCell id="57" value="&lt;b&gt;EST REFERENCÉ PAR&amp;nbsp;&lt;/b&gt;" style="ellipse;whiteSpace=wrap;html=1;fillColor=#FFCC99;strokeColor=none;" parent="1" vertex="1">
                    <mxGeometry x="-230" y="240" width="100" height="70" as="geometry"/>
                </mxCell>
                <mxCell id="58" value="" style="endArrow=none;html=1;" parent="1" edge="1">
                    <mxGeometry width="50" height="50" relative="1" as="geometry">
                        <mxPoint x="-180.5" y="240" as="sourcePoint"/>
                        <mxPoint x="-180.5" y="180" as="targetPoint"/>
                    </mxGeometry>
                </mxCell>
                <mxCell id="59" value="" style="endArrow=none;html=1;" parent="1" edge="1">
                    <mxGeometry width="50" height="50" relative="1" as="geometry">
                        <mxPoint x="-180.5" y="370" as="sourcePoint"/>
                        <mxPoint x="-180.5" y="310" as="targetPoint"/>
                    </mxGeometry>
                </mxCell>
                <mxCell id="60" value="1, N" style="text;html=1;align=center;verticalAlign=middle;resizable=0;points=[];autosize=1;strokeColor=none;fillColor=none;" parent="1" vertex="1">
                    <mxGeometry x="-180" y="180" width="50" height="30" as="geometry"/>
                </mxCell>
                <mxCell id="61" value="0, N" style="text;html=1;align=center;verticalAlign=middle;resizable=0;points=[];autosize=1;strokeColor=none;fillColor=none;" parent="1" vertex="1">
                    <mxGeometry x="-180" y="340" width="50" height="30" as="geometry"/>
                </mxCell>
                <mxCell id="62" value="&lt;b&gt;APPARTIENT&lt;/b&gt;" style="ellipse;whiteSpace=wrap;html=1;fillColor=#FFCC99;strokeColor=none;" parent="1" vertex="1">
                    <mxGeometry x="340" y="70" width="100" height="70" as="geometry"/>
                </mxCell>
                <mxCell id="63" value="1, 1" style="text;html=1;align=center;verticalAlign=middle;resizable=0;points=[];autosize=1;strokeColor=none;fillColor=none;" parent="1" vertex="1">
                    <mxGeometry x="270" y="78" width="40" height="30" as="geometry"/>
                </mxCell>
                <mxCell id="64" value="" style="endArrow=none;html=1;entryX=0;entryY=0.5;entryDx=0;entryDy=0;exitX=1;exitY=0.5;exitDx=0;exitDy=0;" parent="1" edge="1">
                    <mxGeometry width="50" height="50" relative="1" as="geometry">
                        <mxPoint x="270" y="108" as="sourcePoint"/>
                        <mxPoint x="340" y="108" as="targetPoint"/>
                    </mxGeometry>
                </mxCell>
                <mxCell id="65" value="" style="endArrow=none;html=1;entryX=0;entryY=0.5;entryDx=0;entryDy=0;exitX=1;exitY=0.5;exitDx=0;exitDy=0;" parent="1" edge="1">
                    <mxGeometry width="50" height="50" relative="1" as="geometry">
                        <mxPoint x="440" y="108" as="sourcePoint"/>
                        <mxPoint x="510" y="108" as="targetPoint"/>
                    </mxGeometry>
                </mxCell>
                <mxCell id="66" value="0, N" style="text;html=1;align=center;verticalAlign=middle;resizable=0;points=[];autosize=1;strokeColor=none;fillColor=none;" parent="1" vertex="1">
                    <mxGeometry x="465" y="78" width="50" height="30" as="geometry"/>
                </mxCell>
                <mxCell id="67" value="&lt;b&gt;INCLUT&lt;br&gt;&lt;br&gt;&lt;/b&gt;&lt;div&gt;&lt;b style=&quot;background-color: transparent;&quot;&gt;QUANTITÉ&lt;/b&gt;&lt;/div&gt;&lt;div&gt;&lt;b&gt;MESURE&lt;/b&gt;&lt;/div&gt;" style="ellipse;whiteSpace=wrap;html=1;fillColor=#FFCC99;strokeColor=none;" parent="1" vertex="1">
                    <mxGeometry x="150" y="310" width="100" height="70" as="geometry"/>
                </mxCell>
                <mxCell id="68" value="" style="endArrow=none;html=1;entryX=0.5;entryY=1;entryDx=0;entryDy=0;" parent="1" target="6" edge="1">
                    <mxGeometry width="50" height="50" relative="1" as="geometry">
                        <mxPoint x="200" y="310" as="sourcePoint"/>
                        <mxPoint x="200" y="270" as="targetPoint"/>
                    </mxGeometry>
                </mxCell>
                <mxCell id="69" value="" style="endArrow=none;html=1;" parent="1" edge="1">
                    <mxGeometry width="50" height="50" relative="1" as="geometry">
                        <mxPoint x="200" y="440" as="sourcePoint"/>
                        <mxPoint x="200.5" y="380" as="targetPoint"/>
                    </mxGeometry>
                </mxCell>
                <mxCell id="70" value="1, N" style="text;html=1;align=center;verticalAlign=middle;resizable=0;points=[];autosize=1;strokeColor=none;fillColor=none;" parent="1" vertex="1">
                    <mxGeometry x="155" y="240" width="50" height="30" as="geometry"/>
                </mxCell>
                <mxCell id="71" value="0, N" style="text;html=1;align=center;verticalAlign=middle;resizable=0;points=[];autosize=1;strokeColor=none;fillColor=none;" parent="1" vertex="1">
                    <mxGeometry x="150" y="410" width="50" height="30" as="geometry"/>
                </mxCell>
                <mxCell id="79" value="&lt;b&gt;CRÉER&lt;/b&gt;" style="ellipse;whiteSpace=wrap;html=1;fillColor=#FFCC99;strokeColor=none;" parent="1" vertex="1">
                    <mxGeometry x="150" y="-130" width="100" height="70" as="geometry"/>
                </mxCell>
                <mxCell id="80" value="" style="endArrow=none;html=1;" parent="1" edge="1">
                    <mxGeometry width="50" height="50" relative="1" as="geometry">
                        <mxPoint x="199" as="sourcePoint"/>
                        <mxPoint x="199" y="-60" as="targetPoint"/>
                    </mxGeometry>
                </mxCell>
                <mxCell id="81" value="" style="endArrow=none;html=1;exitX=1;exitY=0.5;exitDx=0;exitDy=0;" parent="1" edge="1">
                    <mxGeometry width="50" height="50" relative="1" as="geometry">
                        <mxPoint x="250" y="-95.5" as="sourcePoint"/>
                        <mxPoint x="340" y="-95" as="targetPoint"/>
                    </mxGeometry>
                </mxCell>
                <mxCell id="82" value="0, N" style="text;html=1;align=center;verticalAlign=middle;resizable=0;points=[];autosize=1;strokeColor=none;fillColor=none;" parent="1" vertex="1">
                    <mxGeometry x="300" y="-120" width="50" height="30" as="geometry"/>
                </mxCell>
                <mxCell id="83" value="1, 1" style="text;html=1;align=center;verticalAlign=middle;resizable=0;points=[];autosize=1;strokeColor=none;fillColor=none;" parent="1" vertex="1">
                    <mxGeometry x="160" y="-30" width="40" height="30" as="geometry"/>
                </mxCell>
                <mxCell id="116" value="&lt;b&gt;Format d&#39;oeuvre&lt;/b&gt;" style="swimlane;fontStyle=0;childLayout=stackLayout;horizontal=1;startSize=30;horizontalStack=0;resizeParent=1;resizeParentMax=0;resizeLast=0;collapsible=1;marginBottom=0;whiteSpace=wrap;html=1;fillColor=#66B2FF;strokeColor=none;" parent="1" vertex="1">
                    <mxGeometry x="-255" y="-350" width="140" height="90" as="geometry"/>
                </mxCell>
                <mxCell id="118" value="&lt;u&gt;code format oeuvre&lt;/u&gt;" style="text;strokeColor=none;fillColor=#CCE5FF;align=left;verticalAlign=middle;spacingLeft=4;spacingRight=4;overflow=hidden;points=[[0,0.5],[1,0.5]];portConstraint=eastwest;rotatable=0;whiteSpace=wrap;html=1;" parent="116" vertex="1">
                    <mxGeometry y="30" width="140" height="30" as="geometry"/>
                </mxCell>
                <mxCell id="142" value="Nom" style="text;strokeColor=none;fillColor=#CCE5FF;align=left;verticalAlign=middle;spacingLeft=4;spacingRight=4;overflow=hidden;points=[[0,0.5],[1,0.5]];portConstraint=eastwest;rotatable=0;whiteSpace=wrap;html=1;" vertex="1" parent="116">
                    <mxGeometry y="60" width="140" height="30" as="geometry"/>
                </mxCell>
                <mxCell id="136" value="" style="endArrow=none;html=1;" parent="116" edge="1">
                    <mxGeometry width="50" height="50" relative="1" as="geometry">
                        <mxPoint x="69.16999999999999" y="150" as="sourcePoint"/>
                        <mxPoint x="69.16999999999999" y="90" as="targetPoint"/>
                    </mxGeometry>
                </mxCell>
                <mxCell id="120" value="&lt;b&gt;Difficulté&lt;/b&gt;" style="swimlane;fontStyle=0;childLayout=stackLayout;horizontal=1;startSize=30;horizontalStack=0;resizeParent=1;resizeParentMax=0;resizeLast=0;collapsible=1;marginBottom=0;whiteSpace=wrap;html=1;fillColor=#66B2FF;strokeColor=none;" parent="1" vertex="1">
                    <mxGeometry x="510" y="190" width="140" height="90" as="geometry"/>
                </mxCell>
                <mxCell id="122" value="&lt;u&gt;code difficulté&lt;/u&gt;" style="text;strokeColor=none;fillColor=#CCE5FF;align=left;verticalAlign=middle;spacingLeft=4;spacingRight=4;overflow=hidden;points=[[0,0.5],[1,0.5]];portConstraint=eastwest;rotatable=0;whiteSpace=wrap;html=1;" parent="120" vertex="1">
                    <mxGeometry y="30" width="140" height="30" as="geometry"/>
                </mxCell>
                <mxCell id="140" value="nom" style="text;strokeColor=none;fillColor=#CCE5FF;align=left;verticalAlign=middle;spacingLeft=4;spacingRight=4;overflow=hidden;points=[[0,0.5],[1,0.5]];portConstraint=eastwest;rotatable=0;whiteSpace=wrap;html=1;" vertex="1" parent="120">
                    <mxGeometry y="60" width="140" height="30" as="geometry"/>
                </mxCell>
                <mxCell id="124" value="&lt;b&gt;EST CARACTERISÉ PAR&lt;/b&gt;" style="ellipse;whiteSpace=wrap;html=1;fillColor=#FFCC99;strokeColor=none;" parent="1" vertex="1">
                    <mxGeometry x="340" y="190" width="100" height="70" as="geometry"/>
                </mxCell>
                <mxCell id="125" value="1, 1" style="text;html=1;align=center;verticalAlign=middle;resizable=0;points=[];autosize=1;strokeColor=none;fillColor=none;" parent="1" vertex="1">
                    <mxGeometry x="270" y="200" width="40" height="30" as="geometry"/>
                </mxCell>
                <mxCell id="126" value="" style="endArrow=none;html=1;entryX=0;entryY=0.5;entryDx=0;entryDy=0;exitX=1;exitY=0.5;exitDx=0;exitDy=0;" parent="1" edge="1">
                    <mxGeometry width="50" height="50" relative="1" as="geometry">
                        <mxPoint x="270" y="224.5" as="sourcePoint"/>
                        <mxPoint x="340" y="224.5" as="targetPoint"/>
                    </mxGeometry>
                </mxCell>
                <mxCell id="127" value="0, N" style="text;html=1;align=center;verticalAlign=middle;resizable=0;points=[];autosize=1;strokeColor=none;fillColor=none;" parent="1" vertex="1">
                    <mxGeometry x="465" y="200" width="50" height="30" as="geometry"/>
                </mxCell>
                <mxCell id="128" value="" style="endArrow=none;html=1;entryX=0;entryY=0.5;entryDx=0;entryDy=0;exitX=1;exitY=0.5;exitDx=0;exitDy=0;" parent="1" edge="1">
                    <mxGeometry width="50" height="50" relative="1" as="geometry">
                        <mxPoint x="440" y="224.5" as="sourcePoint"/>
                        <mxPoint x="510" y="224.5" as="targetPoint"/>
                    </mxGeometry>
                </mxCell>
                <mxCell id="137" value="" style="line;strokeWidth=2;html=1;" parent="1" vertex="1">
                    <mxGeometry x="150" y="340" width="100" height="10" as="geometry"/>
                </mxCell>
                <mxCell id="129" value="&lt;b&gt;CARACTÉRISE&lt;/b&gt;" style="ellipse;whiteSpace=wrap;html=1;fillColor=#FFCC99;strokeColor=none;" parent="1" vertex="1">
                    <mxGeometry x="-255" y="-200" width="140" height="70" as="geometry"/>
                </mxCell>
                <mxCell id="135" value="" style="endArrow=none;html=1;exitX=0.464;exitY=0.042;exitDx=0;exitDy=0;exitPerimeter=0;" parent="1" edge="1">
                    <mxGeometry width="50" height="50" relative="1" as="geometry">
                        <mxPoint x="-185.4200000000002" y="-59.92000000000007" as="sourcePoint"/>
                        <mxPoint x="-185.38" y="-130" as="targetPoint"/>
                    </mxGeometry>
                </mxCell>
                <mxCell id="149" value="1, 1" style="text;html=1;align=center;verticalAlign=middle;resizable=0;points=[];autosize=1;strokeColor=none;fillColor=none;" vertex="1" parent="1">
                    <mxGeometry x="-230" y="-90" width="40" height="30" as="geometry"/>
                </mxCell>
                <mxCell id="150" value="0, N" style="text;html=1;align=center;verticalAlign=middle;resizable=0;points=[];autosize=1;strokeColor=none;fillColor=none;" vertex="1" parent="1">
                    <mxGeometry x="-240" y="-260" width="50" height="30" as="geometry"/>
                </mxCell>
            </root>
        </mxGraphModel>
    </diagram>
</mxfile>